<svg width="139" height="50" viewBox="0 0 139 50" fill="none" xmlns="http://www.w3.org/2000/svg">
<g clip-path="url(#clip0_43_65)">
<path d="M24.912 11.4311L20.31 41.4271H13.698L15.378 30.596H8.256L6.61 41.4271H0L4.639 11.4311H11.214L9.242 24.096H16.364L18.338 11.4311H24.913H24.912ZM38.473 41.4271L38.693 34.8869H32.593L30.803 41.4271H23.826L33.214 11.4311H45.267L45.414 41.4271H38.474H38.473ZM36.976 18.7218L34.091 29.3038H38.876L39.277 18.7229H36.976V18.7218ZM73.783 11.4311L69.18 41.4271H62.568L57.967 25.014L55.483 41.4282H48.87L53.509 11.4311H60.303L64.833 26.763L67.206 11.4311H73.782H73.783ZM89.208 11.4311C92.398 11.4311 94.675 12.348 96.038 14.1807C97.037 15.5694 97.535 17.3056 97.535 19.3885C97.535 20.139 97.475 20.9298 97.354 21.763L95.929 31.0539C95.442 34.1915 94.248 36.7058 92.349 38.5948C90.449 40.4837 87.99 41.4271 84.969 41.4271H74.34L78.98 11.4311H89.208ZM86.906 17.931H84.532L81.939 34.9272H85.409C86.553 34.9272 87.442 34.5795 88.075 33.8862C88.733 33.1633 89.183 31.9973 89.425 30.3872L90.486 23.5544C90.578 23.0032 90.627 22.4456 90.632 21.887C90.632 19.2476 89.391 17.93 86.906 17.93V17.931ZM117.112 41.4271H98.775L103.416 11.4311H121.753L120.73 17.931H108.968L108.128 23.5554H117.844L116.822 30.0533H107.105L106.375 34.9282H118.137L117.113 41.4271H117.112ZM137.977 41.4271H121.32L125.96 11.4311H132.535L128.919 34.9282H139L137.977 41.4271ZM73.471 46.7653H137.014L135.029 53.0002H71.486L73.471 46.7653ZM6.95 0H76.45L74.464 6.23495H4.964L6.95 0Z" fill="#9C9C9C"/>
</g>
<defs>
<clipPath id="clip0_43_65">
<rect width="139" height="50" fill="white"/>
</clipPath>
</defs>
</svg>
