<svg width="221" height="34" viewBox="0 0 221 34" fill="none" xmlns="http://www.w3.org/2000/svg">
<g clip-path="url(#clip0_43_56)">
<path d="M21.022 32.9551C19.699 32.9866 18.3883 32.7221 17.2109 32.1861C16.0398 31.6538 15.041 30.8657 14.3086 29.8961C12.0026 31.7746 9.01505 32.8596 5.88578 32.9551C0.262682 32.9551 -2.78509 29.4911 -1.75563 24.5251C-0.973114 20.7911 2.52793 17.0491 3.50665 14.0451C1.61236 13.0371 -1.19975 12.3351 -2.51786 14.3951L-3.38269 13.9361C-2.69263 11.6781 -1.02498 10.1761 1.3846 10.1761C3.79417 10.1761 5.5757 11.4261 7.87253 10.2751H9.70479C8.72721 14.7731 6.25562 18.3711 4.93751 24.6691C4.13469 28.5291 5.62757 30.2831 8.15103 30.2831C10.0151 30.0798 11.7299 29.2758 12.9691 28.0241C11.9627 25.8277 11.4554 23.4768 11.4762 21.1061C11.4762 15.6361 14.3492 9.87009 19.1683 9.87009C21.6399 9.87009 23.4722 11.3721 23.4722 14.9351C23.4722 18.4971 21.0017 24.0121 17.8502 27.4751C18.0205 28.3001 18.5155 29.0471 19.2484 29.5881C19.9813 30.1281 20.907 30.4281 21.8666 30.4361C26.4591 30.4361 29.6715 24.4161 29.6715 18.8481C29.6715 13.2801 26.9124 13.5311 27.1491 11.6511C27.1705 11.4162 27.2439 11.1873 27.3652 10.9776C27.4865 10.7679 27.6534 10.5815 27.8561 10.4291C28.2665 10.1191 28.801 9.96409 29.3422 9.99609C30.7742 9.99609 32.6572 11.5791 32.6572 18.0031C32.6572 26.1891 27.6746 32.9551 21.022 32.9551ZM19.9824 12.6951C18.5504 12.6951 17.1703 17.3101 16.9955 22.0781C16.9287 23.0977 16.9495 24.1203 17.0576 25.1371C19.217 22.0182 20.5348 18.499 20.9081 14.8541C20.898 13.2341 20.5586 12.6941 19.9813 12.6941L19.9824 12.6951ZM42.0903 32.7481C41.4898 32.8023 40.8832 32.7406 40.3122 32.5671C39.7433 32.3947 39.2238 32.1141 38.79 31.7451C38.3589 31.3781 38.0247 30.9311 37.8113 30.4361C37.5983 29.9432 37.512 29.4143 37.5587 28.8881C37.5587 26.6841 40.8342 15.6991 40.8342 13.8911C40.8342 13.0371 40.6076 12.5331 39.7428 12.5331C38.7778 12.6704 37.8792 13.0548 37.1573 13.6391V12.0831C38.6564 10.877 40.5915 10.1849 42.6146 10.1311C43.2189 10.0834 43.8276 10.1516 44.3995 10.3311C44.9701 10.5111 45.4888 10.7961 45.9206 11.1691C46.3513 11.5411 46.6851 11.9911 46.8971 12.4891C47.1079 12.9851 47.1936 13.5161 47.1451 14.0441C47.1451 16.2481 43.8718 27.1881 43.8718 28.9871C43.8718 29.8421 44.0974 30.3461 44.9633 30.3461C45.9152 30.2057 46.8075 29.8422 47.5477 29.2931V30.7951C46.0542 32.0093 44.1157 32.7031 42.0903 32.7481ZM46.1055 0.999089C46.5543 0.987089 47.0008 1.05909 47.4146 1.21309C47.8273 1.36709 48.1983 1.59709 48.4982 1.88809C48.7993 2.17687 49.0244 2.52128 49.1574 2.89651C49.2904 3.27175 49.3279 3.66846 49.2672 4.05809C49.1565 4.88999 48.707 5.6574 48.0032 6.21609C47.2934 6.77989 46.3794 7.09953 45.4267 7.11709C44.9785 7.12968 44.5324 7.0567 44.1188 6.90309C43.7064 6.75031 43.3363 6.52002 43.0341 6.22809C42.733 5.93931 42.5078 5.5949 42.3749 5.21967C42.2419 4.84443 42.2044 4.44772 42.2651 4.05809C42.3759 3.22621 42.8254 2.45884 43.5291 1.90009C44.2391 1.33673 45.153 1.01646 46.1055 0.999089ZM58.8536 28.0341C58.5661 29.3921 58.7409 30.3371 59.8323 30.3371C60.7876 30.2067 61.6828 29.8419 62.4167 29.2841L62.5193 30.7951C61.0203 32.0015 59.0852 32.694 57.0619 32.7481C53.4989 32.7481 52.1199 30.4901 52.6453 27.6831L56.1464 10.2751C57.31 4.46309 56.9075 3.69809 53.3444 3.69809L53.571 2.29509L64.311 1.05309L58.8536 28.0341ZM89.0562 27.9881C88.7676 29.3471 88.8803 30.3461 90.0338 30.3461C90.9912 30.1874 91.8837 29.8053 92.6193 29.2391V30.7951C91.1299 32.0151 89.1889 32.7097 87.1619 32.7481C86.1366 32.814 85.1201 32.5412 84.3081 31.9821C83.5024 31.4285 82.962 30.6257 82.7949 29.7341C81.9306 30.7326 80.8212 31.5434 79.5509 32.1051C78.2742 32.6705 76.8702 32.9733 75.4433 32.9911C68.616 32.9911 65.743 27.7281 67.0611 21.4031C68.3792 15.0791 74.5255 9.91509 81.4768 9.91509C83.1202 9.88456 84.7457 10.2216 86.2035 10.8951L86.3783 10.0951C87.7381 3.90509 87.11 3.69809 83.547 3.69809L83.7218 2.29509L94.5124 1.05309L89.0551 27.9891L89.0562 27.9881ZM81.6516 12.1821C77.6871 12.1821 75.052 16.2931 74.0113 21.3581C72.9198 26.6751 73.6099 30.3551 77.3376 30.3551C79.8599 30.3551 82.7329 27.6551 83.5977 23.5351L85.7198 13.1001C84.4928 12.4506 83.0793 12.1317 81.6516 12.1821ZM107.2 32.9991C99.2188 32.9991 97.0359 27.9791 98.0146 23.1661L100.619 10.2751C101.825 4.45509 101.423 3.65309 97.8601 3.65309L98.0856 2.25009L108.857 1.05309L106.674 11.9841C108.359 10.708 110.484 9.98112 112.699 9.92409C119.649 9.92409 122.913 15.0881 121.657 21.4121C120.401 27.7371 114.007 32.9991 107.2 32.9991ZM110.927 12.3081C109.77 12.3282 108.648 12.6687 107.719 13.2821C106.798 13.8907 106.118 14.7434 105.779 15.7171L104.172 23.8141C103.193 28.6271 105.151 30.5881 107.622 30.5881C111.236 30.5881 113.481 27.0801 114.685 21.3131C115.757 16.1491 114.779 12.3351 110.917 12.3351L110.927 12.3081ZM132.541 24.3271C132.541 28.1871 134.662 30.2471 138.719 30.2471C140.779 30.2471 143.775 28.9971 145.671 27.3411L146.473 28.9421C145.108 30.2051 143.472 31.2141 141.662 31.9101C139.844 32.6089 137.889 32.9821 135.908 33.0081C129.885 33.0081 125.806 29.0951 125.806 23.7781C125.806 15.9061 133.272 9.93309 140.45 9.93309C144.816 9.93309 147.276 12.0381 147.276 14.4941C147.225 18.3081 143.086 22.5911 132.541 24.3271ZM139.945 12.2361C136.67 12.2361 133.52 16.4011 132.654 22.3661C139.255 20.9621 142.066 17.0491 142.128 14.5391C142.118 13.1361 141.366 12.2361 139.935 12.2361H139.945ZM170.703 32.7481C169.678 32.8139 168.662 32.5411 167.849 31.9821C167.044 31.4284 166.504 30.6256 166.337 29.7341C165.505 30.7322 164.422 31.5446 163.174 32.1071C161.92 32.6731 160.536 32.9753 159.129 32.9901C152.416 32.9901 149.543 27.7281 150.891 21.4031C152.24 15.0791 158.284 9.92309 165.256 9.92309C166.733 9.91646 168.197 10.1739 169.56 10.6801H176.109L172.598 27.9881C172.309 29.3471 172.423 30.3461 173.576 30.3461C174.533 30.1872 175.425 29.8051 176.161 29.2391V30.7951C174.671 32.015 172.73 32.7096 170.703 32.7481ZM165.421 12.1821C161.569 12.1821 158.872 16.2931 157.841 21.3581C156.75 26.6751 157.502 30.3551 160.931 30.3551C163.567 30.3551 166.388 27.5481 167.192 23.5351L169.313 13.1001C168.155 12.4506 166.8 12.1303 165.431 12.1821H165.421ZM196.199 15.8431C194.645 15.8431 194.242 14.7911 193.79 13.6841C193.635 13.1245 193.265 12.6306 192.742 12.2881C192.216 11.9427 191.571 11.7686 190.917 11.7951C190.067 11.7552 189.231 11.9952 188.568 12.4691C187.911 12.9382 187.477 13.6099 187.354 14.3501C187.179 15.7091 188.331 16.8601 190.514 18.5151L193.439 20.6201C194.526 21.3379 195.37 22.3064 195.879 23.4201C196.386 24.5301 196.535 25.7401 196.312 26.9181C195.57 30.6781 192.008 32.9901 187.24 32.9901C181.494 32.9901 177.828 30.0301 178.23 28.0241C178.323 27.4971 178.628 27.0141 179.09 26.6661C179.552 26.3161 180.142 26.1221 180.753 26.1171C182.246 26.1171 182.812 27.1161 183.275 28.4201C183.573 29.1701 184.145 29.8121 184.903 30.2481C185.663 30.6844 186.563 30.8891 187.467 30.8311C188.359 30.8686 189.236 30.613 189.929 30.1131C190.616 29.6174 191.068 28.9106 191.194 28.1331C191.421 26.3331 190.165 25.2271 187.807 23.3641L184.934 21.1601C183.924 20.4868 183.135 19.5869 182.647 18.5531C182.163 17.5244 181.999 16.3991 182.174 15.2951C182.689 12.8841 185.263 9.89709 191.184 9.89709C195.777 9.89709 198.65 12.1551 198.393 13.9631C198.364 14.4618 198.122 14.932 197.716 15.2781C197.31 15.6261 196.768 15.8281 196.199 15.8431ZM217.216 12.6951H211.645L208.948 26.0271C208.37 28.7891 208.834 30.0401 210.553 30.0401C211.47 30.0401 212.911 29.5901 214.971 27.7371L215.084 29.6891C214.148 30.6568 212.989 31.4344 211.684 31.9691C210.374 32.5068 208.949 32.7905 207.505 32.8011C203.603 32.8011 201.647 30.3911 202.574 25.9281L205.271 12.6951H200.915L201.255 10.6351H205.652L206.805 4.67009H213.231L212.026 10.6341H217.597L217.216 12.6951Z" fill="#9C9C9C"/>
</g>
<defs>
<clipPath id="clip0_43_56">
<rect width="221" height="34" fill="white"/>
</clipPath>
</defs>
</svg>
