<svg width="32" height="32" viewBox="0 0 32 32" fill="none" xmlns="http://www.w3.org/2000/svg">
<path d="M22.6665 21.3199C20.8665 21.3199 19.7332 21.8799 18.7332 22.3866C17.8665 22.8266 17.1598 23.1866 15.9998 23.1866C14.7998 23.1866 14.1332 22.8532 13.2665 22.3866C12.2665 21.8799 11.1732 21.3199 9.33317 21.3199C7.49317 21.3199 6.39984 21.8799 5.39984 22.3866C4.8265 22.6799 4.31984 22.9332 3.7065 23.0799C3.1065 23.2132 2.6665 23.6932 2.6665 24.2932V24.4266C2.6665 25.2266 3.41317 25.7999 4.1865 25.6399C5.17317 25.4399 5.91984 25.0666 6.59984 24.7199C7.4665 24.2799 8.15984 23.9199 9.33317 23.9199C10.5065 23.9199 11.1998 24.2532 12.0665 24.7199C13.0665 25.2266 14.1598 25.7866 15.9998 25.7866C17.8398 25.7866 18.9332 25.2266 19.9332 24.7199C20.7998 24.2799 21.5065 23.9199 22.6665 23.9199C23.8665 23.9199 24.5332 24.2532 25.3998 24.7199C26.0932 25.0666 26.8398 25.4532 27.8398 25.6532C28.02 25.6884 28.2056 25.6836 28.3837 25.6391C28.5617 25.5946 28.7279 25.5116 28.8703 25.3958C29.0127 25.2801 29.128 25.1345 29.208 24.9693C29.288 24.8041 29.3307 24.6234 29.3332 24.4399V24.3199C29.3332 23.7066 28.8798 23.2266 28.2798 23.0932C27.6665 22.9599 27.1732 22.7066 26.5998 22.3999C25.5998 21.8799 24.4665 21.3199 22.6665 21.3199ZM22.6665 15.3866C20.8665 15.3866 19.7332 15.9599 18.7332 16.4532C17.8665 16.8799 17.1598 17.2532 15.9998 17.2532C14.7998 17.2532 14.1332 16.9199 13.2665 16.4532C12.2665 15.9466 11.1732 15.3866 9.33317 15.3866C7.49317 15.3866 6.39984 15.9599 5.39984 16.4532C4.8265 16.7332 4.31984 16.9999 3.69317 17.1466C3.1065 17.2799 2.6665 17.7599 2.6665 18.3599V18.4932C2.66658 18.6775 2.70773 18.8595 2.78697 19.0259C2.86621 19.1923 2.98154 19.3389 3.12457 19.4551C3.2676 19.5713 3.43474 19.6542 3.61382 19.6977C3.7929 19.7412 3.97943 19.7442 4.15984 19.7066C5.15984 19.5066 5.9065 19.1199 6.59984 18.7866C7.4665 18.3199 8.13317 17.9866 9.33317 17.9866C10.5332 17.9866 11.1998 18.3199 12.0665 18.7866C13.0665 19.2932 14.1598 19.8532 15.9998 19.8532C17.8398 19.8532 18.9332 19.2799 19.9332 18.7866C20.7998 18.3199 21.4665 17.9866 22.6665 17.9866C23.8665 17.9866 24.5332 18.3199 25.3998 18.7866C26.0932 19.1332 26.8398 19.5199 27.8398 19.7199C28.0211 19.7553 28.2079 19.7501 28.3869 19.7049C28.5659 19.6597 28.7327 19.5754 28.8754 19.4582C29.0181 19.341 29.1331 19.1938 29.2122 19.0269C29.2914 18.8601 29.3327 18.6779 29.3332 18.4932V18.3732C29.3332 17.7599 28.8798 17.2799 28.2798 17.1466C27.6665 17.0132 27.1732 16.7599 26.5998 16.4532C25.5998 15.9466 24.4665 15.3866 22.6665 15.3866ZM26.5998 4.61324C25.5998 4.10657 24.4932 3.54657 22.6665 3.54657C20.8398 3.54657 19.7332 4.10657 18.7332 4.61324C17.8665 5.0399 17.1598 5.41324 15.9998 5.41324C14.7998 5.41324 14.1332 5.0799 13.2665 4.61324C12.2665 4.1199 11.1732 3.54657 9.33317 3.54657C7.49317 3.54657 6.39984 4.10657 5.39984 4.61324C4.8265 4.90657 4.31984 5.1599 3.7065 5.30657C3.1065 5.4399 2.6665 5.9199 2.6665 6.5199V6.61324C2.6665 7.41324 3.3865 7.9999 4.15984 7.8399C5.15984 7.6399 5.9065 7.25324 6.59984 6.9199C7.4665 6.4799 8.15984 6.1199 9.33317 6.1199C10.5065 6.1199 11.1998 6.45324 12.0665 6.9199C13.0665 7.42657 14.1598 7.98657 15.9998 7.98657C17.8398 7.98657 18.9332 7.41324 19.9332 6.9199C20.7998 6.49324 21.5065 6.1199 22.6665 6.1199C23.8665 6.1199 24.5332 6.45324 25.3998 6.9199C26.0932 7.26657 26.8398 7.65324 27.8398 7.85324C28.0211 7.88859 28.2079 7.88347 28.3869 7.83824C28.5659 7.79301 28.7327 7.70878 28.8754 7.59158C29.0181 7.47438 29.1331 7.3271 29.2122 7.16028C29.2914 6.99346 29.3327 6.81121 29.3332 6.62657V6.50657C29.3332 5.89324 28.8798 5.41324 28.2798 5.2799C27.6665 5.14657 27.1732 4.90657 26.5998 4.61324ZM22.6665 9.45324C20.8665 9.45324 19.7332 10.0266 18.7332 10.5199C17.8665 10.9866 17.1998 11.3199 15.9998 11.3199C14.7998 11.3199 14.1332 10.9866 13.2665 10.5199C12.2665 10.0132 11.1732 9.45324 9.33317 9.45324C7.49317 9.45324 6.39984 10.0266 5.39984 10.5199C4.8265 10.8266 4.33317 11.0799 3.71984 11.2132C3.11984 11.3466 2.6665 11.8266 2.6665 12.4399V12.5599C2.66658 12.7442 2.70773 12.9262 2.78697 13.0925C2.86621 13.2589 2.98154 13.4056 3.12457 13.5218C3.2676 13.638 3.43474 13.7209 3.61382 13.7644C3.7929 13.8079 3.97943 13.8109 4.15984 13.7732C5.15984 13.5732 5.9065 13.1866 6.59984 12.8532C7.4665 12.4266 8.17317 12.0532 9.33317 12.0532C10.4932 12.0532 11.1998 12.3866 12.0665 12.8532C13.0665 13.3599 14.1598 13.9199 15.9998 13.9199C17.8398 13.9199 18.9332 13.3466 19.9332 12.8532C20.7998 12.4266 21.5065 12.0532 22.6665 12.0532C23.8665 12.0532 24.5332 12.3866 25.3998 12.8532C26.0932 13.1999 26.8398 13.5866 27.8398 13.7866C28.02 13.8217 28.2056 13.8169 28.3837 13.7724C28.5617 13.728 28.7279 13.6449 28.8703 13.5292C29.0127 13.4134 29.128 13.2678 29.208 13.1027C29.288 12.9375 29.3307 12.7567 29.3332 12.5732V12.4532C29.3332 11.8399 28.8798 11.3599 28.2798 11.2266C27.6665 11.0932 27.1732 10.8399 26.5998 10.5332C25.5998 10.0132 24.4665 9.45324 22.6665 9.45324Z" fill="url(#paint0_linear_81_249)"/>
<defs>
<linearGradient id="paint0_linear_81_249" x1="15.9998" y1="3.54657" x2="15.9998" y2="25.7866" gradientUnits="userSpaceOnUse">
<stop stop-color="#FFBF00"/>
<stop offset="1" stop-color="#F2A50C"/>
</linearGradient>
</defs>
</svg>
