<svg width="20" height="20" viewBox="0 0 20 20" fill="none" xmlns="http://www.w3.org/2000/svg">
<path d="M16.667 3.333H3.33299C2.41699 3.333 1.67499 4.083 1.67499 5L1.66699 15C1.66699 15.917 2.41699 16.667 3.33299 16.667H16.667C17.583 16.667 18.333 15.917 18.333 15V5C18.333 4.083 17.583 3.333 16.667 3.333ZM16.333 6.875L10.442 10.559C10.3091 10.6408 10.1561 10.6842 9.99999 10.6842C9.84391 10.6842 9.6909 10.6408 9.55799 10.559L3.66699 6.875C3.5846 6.82751 3.51261 6.7639 3.45534 6.68798C3.39807 6.61205 3.35668 6.52537 3.33364 6.43309C3.3106 6.34082 3.30639 6.24486 3.32126 6.15092C3.33613 6.05699 3.36977 5.96701 3.42017 5.88636C3.47058 5.80572 3.53671 5.73605 3.61464 5.68152C3.69256 5.627 3.78066 5.58873 3.8737 5.569C3.96673 5.54927 4.06279 5.54849 4.15613 5.5667C4.24948 5.58492 4.3382 5.62175 4.41699 5.675L9.99999 9.167L15.583 5.675C15.6618 5.62175 15.7505 5.58492 15.8439 5.5667C15.9372 5.54849 16.0332 5.54927 16.1263 5.569C16.2193 5.58873 16.3074 5.627 16.3853 5.68152C16.4633 5.73605 16.5294 5.80572 16.5798 5.88636C16.6302 5.96701 16.6639 6.05699 16.6787 6.15092C16.6936 6.24486 16.6894 6.34082 16.6663 6.43309C16.6433 6.52537 16.6019 6.61205 16.5446 6.68798C16.4874 6.7639 16.4154 6.82751 16.333 6.875Z" fill="url(#paint0_linear_85_515)"/>
<defs>
<linearGradient id="paint0_linear_85_515" x1="9.99999" y1="3.333" x2="9.99999" y2="16.667" gradientUnits="userSpaceOnUse">
<stop stop-color="#FFBF00"/>
<stop offset="1" stop-color="#F2A50C"/>
</linearGradient>
</defs>
</svg>
