<svg width="16" height="16" viewBox="0 0 16 16" fill="none" xmlns="http://www.w3.org/2000/svg">
<path d="M8 0C3.60014 0 0 3.60014 0 8C0 12.3999 3.60014 16 8 16C12.3999 16 16 12.3999 16 8C16 3.60014 12.3999 0 8 0ZM10.8398 11.0404L7.57566 9.03204C7.45814 8.96185 7.36093 8.86225 7.29359 8.74307C7.22626 8.62389 7.19112 8.48922 7.19165 8.35233V4.59954C7.19586 4.44024 7.2616 4.28877 7.37508 4.17689C7.48857 4.06502 7.64097 4.00145 7.80031 3.99952C7.95906 4.00078 8.11095 4.06439 8.22321 4.17665C8.33546 4.2889 8.39908 4.4408 8.40034 4.59954V8.15937L11.4725 10.0074C11.7605 10.1841 11.8565 10.5595 11.6798 10.8484C11.593 10.9842 11.4562 11.0805 11.2991 11.1164C11.142 11.1523 10.977 11.125 10.8398 11.0404Z" fill="url(#paint0_linear_90_122)"/>
<defs>
<linearGradient id="paint0_linear_90_122" x1="8" y1="0" x2="8" y2="16" gradientUnits="userSpaceOnUse">
<stop stop-color="#FFBF00"/>
<stop offset="1" stop-color="#F2A50C"/>
</linearGradient>
</defs>
</svg>
