<svg width="32" height="32" viewBox="0 0 32 32" fill="none" xmlns="http://www.w3.org/2000/svg">
<path d="M24.0002 9.33333H22.6668V6.66667C22.6668 2.98667 19.6802 0 16.0002 0C12.3202 0 9.3335 2.98667 9.3335 6.66667V9.33333H8.00016C6.5335 9.33333 5.3335 10.5333 5.3335 12V25.3333C5.3335 26.8 6.5335 28 8.00016 28H24.0002C25.4668 28 26.6668 26.8 26.6668 25.3333V12C26.6668 10.5333 25.4668 9.33333 24.0002 9.33333ZM16.0002 21.3333C14.5335 21.3333 13.3335 20.1333 13.3335 18.6667C13.3335 17.2 14.5335 16 16.0002 16C17.4668 16 18.6668 17.2 18.6668 18.6667C18.6668 20.1333 17.4668 21.3333 16.0002 21.3333ZM12.0002 9.33333V6.66667C12.0002 4.45333 13.7868 2.66667 16.0002 2.66667C18.2135 2.66667 20.0002 4.45333 20.0002 6.66667V9.33333H12.0002Z" fill="url(#paint0_linear_81_279)"/>
<defs>
<linearGradient id="paint0_linear_81_279" x1="16.0002" y1="0" x2="16.0002" y2="28" gradientUnits="userSpaceOnUse">
<stop stop-color="#FFBF00"/>
<stop offset="1" stop-color="#F2A50C"/>
</linearGradient>
</defs>
</svg>
