<svg width="18" height="10" viewBox="0 0 18 10" fill="none" xmlns="http://www.w3.org/2000/svg">
<path fill-rule="evenodd" clip-rule="evenodd" d="M12.0327 0.346397C12.3936 -0.0715852 13.0251 -0.117791 13.4431 0.243193L17.6536 3.87956C17.8616 4.05917 17.9865 4.31644 17.999 4.59095C18.0115 4.86546 17.9104 5.133 17.7196 5.33075L13.5091 9.69439C13.1256 10.0918 12.4925 10.1031 12.0951 9.71964C11.6977 9.33615 11.6864 8.70308 12.0699 8.30565L14.6455 5.63638H1C0.447715 5.63638 0 5.18867 0 4.63638C0 4.0841 0.447715 3.63638 1 3.63638H14.3122L12.1359 1.75684C11.7179 1.39586 11.6717 0.764378 12.0327 0.346397Z" fill="#332200"/>
</svg>
