<svg width="15" height="16" viewBox="0 0 15 16" fill="none" xmlns="http://www.w3.org/2000/svg">
<path d="M0.667 3.9995C1.033 3.9995 1.333 3.6995 1.333 3.3335V2.6665C1.334 2.2995 1.634 1.9995 2 1.9995H2.667C3.033 1.9995 3.333 1.6995 3.333 1.3335C3.333 0.966504 3.033 0.666504 2.667 0.666504H2C0.893 0.666504 0 1.5595 0 2.6665V3.3335C0 3.6995 0.3 3.9995 0.667 3.9995ZM2.667 13.9995H2C1.82344 13.999 1.65424 13.9287 1.52929 13.8039C1.40435 13.6792 1.33379 13.5101 1.333 13.3335V12.6665C1.333 12.2995 1.033 12.0005 0.667 12.0005C0.3 12.0005 0 12.3005 0 12.6665V13.3335C0 14.4405 0.893 15.3335 2 15.3335H2.667C3.033 15.3335 3.333 15.0335 3.333 14.6665C3.333 14.2995 3.033 14.0005 2.667 14.0005V13.9995ZM12.667 0.666504H12.001C11.634 0.666504 11.334 0.966504 11.334 1.3335C11.334 1.6995 11.634 1.9995 12.001 1.9995H12.667C13.034 1.9995 13.334 2.2995 13.334 2.6665V3.3335C13.334 3.6995 13.634 3.9995 14.001 3.9995C14.367 3.9995 14.667 3.6995 14.667 3.3335V2.6665C14.667 1.5595 13.774 0.666504 12.667 0.666504ZM14.001 11.9995C13.634 11.9995 13.334 12.2995 13.334 12.6665V13.3335C13.334 13.7005 13.034 14.0005 12.667 14.0005H12.001C11.634 14.0005 11.334 14.3005 11.334 14.6665C11.334 15.0335 11.634 15.3335 12.001 15.3335H12.667C13.774 15.3335 14.667 14.4405 14.667 13.3335V12.6665C14.667 12.2995 14.367 12.0005 14.001 12.0005V11.9995ZM11.999 9.9135V6.0865C11.999 5.6065 11.746 5.1665 11.333 4.9335L7.999 3.0135C7.7969 2.89492 7.56682 2.8324 7.3325 2.8324C7.09818 2.8324 6.8681 2.89492 6.666 3.0135L3.333 4.9255C2.919 5.1655 2.666 5.6055 2.666 6.0855V9.9125C2.666 10.3925 2.919 10.8325 3.333 11.0655L6.666 12.9855C6.8681 13.1041 7.09818 13.1666 7.3325 13.1666C7.56682 13.1666 7.7969 13.1041 7.999 12.9855L11.334 11.0665C11.5372 10.9506 11.706 10.7827 11.823 10.5801C11.9401 10.3775 12.0011 10.1475 12 9.9135H11.999ZM6.666 11.4465L3.999 9.9135V6.8265L6.666 8.3795V11.4465ZM7.333 7.2265L4.693 5.6865L7.333 4.1665L9.973 5.6865L7.333 7.2265ZM10.666 9.9135L7.999 11.4465V8.3795L10.666 6.8265V9.9135Z" fill="#9C9A9A"/>
</svg>
