<svg width="32" height="32" viewBox="0 0 32 32" fill="none" xmlns="http://www.w3.org/2000/svg">
<path d="M25.9463 12C25.8147 12.1944 25.7369 12.42 25.7205 12.6542C25.7041 12.8883 25.7498 13.1226 25.8529 13.3334C26.1836 14.1054 26.4169 14.916 26.5463 15.7467C26.8895 17.8935 26.5685 20.094 25.6263 22.0534C25.5118 22.2683 25.3408 22.4477 25.1316 22.5723C24.9224 22.6969 24.6831 22.7618 24.4396 22.76H7.57293C7.32809 22.7605 7.08784 22.6936 6.87852 22.5666C6.6692 22.4396 6.49889 22.2574 6.38626 22.04C5.53277 20.3086 5.16512 18.378 5.32251 16.4541C5.4799 14.5302 6.15643 12.685 7.27997 11.1154C8.40352 9.54567 9.93197 8.31031 11.7024 7.54095C13.4728 6.77159 15.4188 6.49708 17.3329 6.74669C18.3014 6.86053 19.2488 7.11195 20.1463 7.49336C20.3571 7.59652 20.5914 7.64222 20.8255 7.62583C21.0596 7.60944 21.2852 7.53155 21.4796 7.40003C21.6821 7.26662 21.8444 7.08051 21.949 6.86173C22.0536 6.64295 22.0965 6.39978 22.0732 6.1584C22.0499 5.91703 21.9612 5.68658 21.8167 5.49187C21.6721 5.29715 21.4772 5.14554 21.2529 5.05336C18.6772 3.9489 15.8189 3.68414 13.0841 4.29669C10.3494 4.90924 7.87712 6.36794 6.0186 8.4656C4.16009 10.5633 3.0098 13.1932 2.73113 15.9819C2.45246 18.7705 3.05959 21.5761 4.46626 24C4.69894 24.4031 5.03305 24.7382 5.43537 24.9721C5.8377 25.206 6.29423 25.3305 6.7596 25.3334H25.2263C25.6962 25.3352 26.1582 25.2129 26.5656 24.9787C26.973 24.7446 27.3113 24.407 27.5463 24C28.5761 22.2153 29.1783 20.2161 29.3055 18.1595C29.4328 16.1029 29.0816 14.0448 28.2796 12.1467C28.178 11.9304 28.0202 11.7453 27.8226 11.6109C27.625 11.4765 27.3949 11.3977 27.1563 11.3827C26.9178 11.3677 26.6797 11.4171 26.4668 11.5257C26.2539 11.6343 26.0741 11.7981 25.9463 12Z" fill="url(#paint0_linear_81_281)"/>
<path d="M14.1199 15.4532C13.6195 15.9536 13.3384 16.6323 13.3384 17.3399C13.3384 17.6903 13.4074 18.0372 13.5415 18.3609C13.6756 18.6847 13.8721 18.9788 14.1199 19.2266C14.3676 19.4743 14.6618 19.6708 14.9855 19.8049C15.3092 19.939 15.6561 20.008 16.0065 20.008C16.7142 20.008 17.3928 19.7269 17.8932 19.2266L25.4399 7.90656L14.1199 15.4532Z" fill="url(#paint1_linear_81_281)"/>
<defs>
<linearGradient id="paint0_linear_81_281" x1="15.998" y1="3.9743" x2="15.998" y2="25.3334" gradientUnits="userSpaceOnUse">
<stop stop-color="#FFBF00"/>
<stop offset="1" stop-color="#F2A50C"/>
</linearGradient>
<linearGradient id="paint1_linear_81_281" x1="19.3891" y1="7.90656" x2="19.3891" y2="20.008" gradientUnits="userSpaceOnUse">
<stop stop-color="#FFBF00"/>
<stop offset="1" stop-color="#F2A50C"/>
</linearGradient>
</defs>
</svg>
