<svg width="32" height="32" viewBox="0 0 32 32" fill="none" xmlns="http://www.w3.org/2000/svg">
<circle cx="16" cy="16" r="16" fill="white"/>
<path d="M23.5833 11.375H22.695L20.8533 6.4025C20.7009 5.99249 20.4239 5.63819 20.0597 5.3874C19.6955 5.13662 19.2617 5.0014 18.8167 5H17.0833C16.4875 5 16 5.47812 16 6.0625C16 6.64688 16.4875 7.125 17.0833 7.125H18.8167L20.3983 11.375H15.1875L14.7975 10.3125H14.895C15.4908 10.3125 15.9783 9.83438 15.9783 9.25C15.9783 8.66563 15.4908 8.1875 14.895 8.1875H11.6667C11.0708 8.1875 10.5833 8.66563 10.5833 9.25C10.5833 9.83438 11.0708 10.3125 11.6667 10.3125H12.4792L14.4508 15.625H13.725C13.2483 13.2556 11.2225 11.5025 8.6875 11.3856C5.65417 11.2369 3 13.7125 3 16.6875C3 19.6625 5.38333 22 8.41667 22C11.0817 22 13.2375 20.2044 13.725 17.75H18.275C18.7517 20.1194 20.7775 21.8725 23.3125 21.9894C26.3458 22.1275 29 19.6625 29 16.6769C29 13.7125 26.6167 11.375 23.5833 11.375ZM9.5 17.75H11.4717C11.0167 19.0569 9.73833 19.96 8.2 19.8644C6.58583 19.7688 5.2425 18.43 5.16667 16.8363C5.09083 14.9769 6.5425 13.5 8.41667 13.5C9.8575 13.5 11.0383 14.3819 11.4717 15.625H9.5C8.90417 15.625 8.41667 16.1031 8.41667 16.6875C8.41667 17.2719 8.90417 17.75 9.5 17.75ZM18.275 15.625H16.7583L15.9675 13.5H19.25C18.7733 14.1163 18.4267 14.8281 18.275 15.625ZM23.4533 19.875C21.785 19.8113 20.3767 18.4194 20.3333 16.7725C20.3117 15.7525 20.7558 14.86 21.4708 14.265L22.1425 16.0713C22.3483 16.6238 22.9658 16.9106 23.5292 16.7088C24.0925 16.5069 24.385 15.9013 24.1792 15.3488L23.4967 13.5106L23.5075 13.5C23.9418 13.4855 24.3747 13.5574 24.7799 13.7115C25.1851 13.8656 25.5543 14.0986 25.8651 14.3965C26.1759 14.6944 26.422 15.051 26.5884 15.4448C26.7548 15.8385 26.8381 16.2613 26.8333 16.6875C26.8333 18.515 25.3383 19.9388 23.4533 19.875Z" fill="url(#paint0_linear_117_159)"/>
<defs>
<linearGradient id="paint0_linear_117_159" x1="16" y1="5" x2="16" y2="22" gradientUnits="userSpaceOnUse">
<stop stop-color="#FFB60D"/>
<stop offset="1" stop-color="#E59317"/>
</linearGradient>
</defs>
</svg>
